<svg width="24" height="24" viewBox="0 0 24 24" fill="none" xmlns="http://www.w3.org/2000/svg">
<path d="M4.80184 18.164C3.81284 16.71 4.12084 14.724 5.36684 13.478L7.80084 11.044C8.23284 10.612 8.23284 9.897 7.80084 9.465C7.36884 9.033 6.65384 9.033 6.22184 9.465L3.87084 11.816C1.70284 13.984 1.35384 17.507 3.30584 19.875C5.54084 22.592 9.56984 22.733 11.9958 20.307L14.5298 17.773C14.9618 17.341 14.9618 16.626 14.5298 16.194C14.0978 15.762 13.3828 15.762 12.9508 16.194L10.4168 18.728C8.83184 20.316 6.13084 20.125 4.80184 18.164ZM10.3348 15.323L15.3198 10.338C15.7768 9.881 15.7768 9.133 15.3198 8.676C14.8628 8.219 14.1148 8.219 13.6578 8.676L8.67284 13.661C8.21584 14.118 8.21584 14.866 8.67284 15.323C9.12984 15.78 9.87784 15.78 10.3348 15.323ZM11.8138 3.874L9.46284 6.225C9.03084 6.657 9.03084 7.372 9.46284 7.804C9.89484 8.236 10.6098 8.236 11.0418 7.804L13.4758 5.37C14.7218 4.124 16.7078 3.816 18.1618 4.805C20.1228 6.134 20.3138 8.835 18.7268 10.421L16.1928 12.955C15.7608 13.387 15.7608 14.102 16.1928 14.534C16.6248 14.966 17.3398 14.966 17.7718 14.534L20.3058 12C22.7318 9.574 22.5908 5.544 19.8818 3.301C17.5138 1.348 13.9828 1.705 11.8138 3.874Z" fill="#808080"/>
</svg>
